# xmcd
#
# Track frame offsets:
#	150
#	13840
#	29589
#	39816
#	52850
#	64367
#	80470
#	95639
#	107342
#	120007
#	134125
#	148221
#	160056
#	177700
#	188669
#	208127
#	216247
#
# Disc length: 3070 seconds
# Revision: 0
# Processed by: cddbd v1.5.2PL0 Copyright (c) Steve Scherf et al.
# Submitted via: dBpowerAMP V12.0
#
DISCID=f40bfc11
DTITLE=Nocna Zmiana Bluesa - Chory na bluesa
DYEAR=1993
DGENRE=Blues
TTITLE0=Chory na bluesa
TTITLE1=Wspaniałe dziewczyny
TTITLE2=Inwestycja
TTITLE3=Lato 1993
TTITLE4=Trzydzieści pięć
TTITLE5=Nieważna sprawa
TTITLE6=Godzina czwarta nad ranem
TTITLE7=Pierwsza - ostatnia
TTITLE8=Nasz własny dom
TTITLE9=A jeśli chcesz
TTITLE10=Polish Macho
TTITLE11=Szósta zero dwie
TTITLE12=Hotelowy blues
TTITLE13=Jim Beam i Jack Daniels
TTITLE14=Jeden mały problem
TTITLE15=Mississippi - 1927
TTITLE16=Życiowa szansa
EXTD=
EXTT0=
EXTT1=
EXTT2=
EXTT3=
EXTT4=
EXTT5=
EXTT6=
EXTT7=
EXTT8=
EXTT9=
EXTT10=
EXTT11=
EXTT12=
EXTT13=
EXTT14=
EXTT15=
EXTT16=
PLAYORDER=
